<svg xmlns="http://www.w3.org/2000/svg" xmlns:xlink="http://www.w3.org/1999/xlink" width="2000" zoomAndPan="magnify" viewBox="0 0 1500 1499.999933" height="2000" preserveAspectRatio="xMidYMid meet" version="1.0"><defs><clipPath id="74f7ca8b31"><path d="M 301 787.039062 L 725.808594 787.039062 L 725.808594 1212 L 301 1212 Z M 301 787.039062 " clip-rule="nonzero"/></clipPath><clipPath id="a13fea4e35"><path d="M 356.160156 853.542969 L 356.160156 1184.210938 L 328.742188 1184.210938 L 328.742188 1156.792969 L 659.410156 1156.792969 L 659.410156 1184.210938 L 640.023438 1203.597656 L 309.355469 872.929688 L 328.742188 853.542969 L 356.160156 853.542969 M 301.324219 853.542969 L 301.324219 787.351562 L 348.128906 834.160156 L 678.796875 1164.824219 L 725.601562 1211.628906 L 301.324219 1211.628906 Z M 301.324219 853.542969 " clip-rule="nonzero"/></clipPath><clipPath id="709767055d"><path d="M 0.199219 0.199219 L 424.761719 0.199219 L 424.761719 424.761719 L 0.199219 424.761719 Z M 0.199219 0.199219 " clip-rule="nonzero"/></clipPath><clipPath id="0be78d999b"><path d="M 55.160156 66.542969 L 55.160156 397.210938 L 27.742188 397.210938 L 27.742188 369.792969 L 358.410156 369.792969 L 358.410156 397.210938 L 339.023438 416.597656 L 8.355469 85.929688 L 27.742188 66.542969 L 55.160156 66.542969 M 0.324219 66.542969 L 0.324219 0.351562 L 47.128906 47.160156 L 377.796875 377.824219 L 424.601562 424.628906 L 0.324219 424.628906 Z M 0.324219 66.542969 " clip-rule="nonzero"/></clipPath><clipPath id="7dcffecb9b"><rect x="0" width="425" y="0" height="425"/></clipPath><clipPath id="d8ec274fa6"><path d="M 785 285 L 1210 285 L 1210 710 L 785 710 Z M 785 285 " clip-rule="nonzero"/></clipPath><clipPath id="c6006cbcdd"><path d="M 1154.777344 643.519531 L 1154.777344 312.886719 L 1182.199219 312.886719 L 1182.199219 340.304688 L 851.53125 340.304688 L 851.53125 312.886719 L 870.917969 293.5 L 1201.582031 624.132812 L 1182.199219 643.519531 L 1154.777344 643.519531 M 1209.617188 643.519531 L 1209.617188 709.710938 L 1162.8125 662.90625 L 832.144531 332.273438 L 785.339844 285.46875 L 1209.617188 285.46875 Z M 1209.617188 643.519531 " clip-rule="nonzero"/></clipPath><clipPath id="662d824dc1"><path d="M 0.28125 0.359375 L 424.839844 0.359375 L 424.839844 424.917969 L 0.28125 424.917969 Z M 0.28125 0.359375 " clip-rule="nonzero"/></clipPath><clipPath id="ddbaf4e7b5"><path d="M 369.777344 358.519531 L 369.777344 27.886719 L 397.199219 27.886719 L 397.199219 55.304688 L 66.53125 55.304688 L 66.53125 27.886719 L 85.917969 8.5 L 416.582031 339.132812 L 397.199219 358.519531 L 369.777344 358.519531 M 424.617188 358.519531 L 424.617188 424.710938 L 377.8125 377.90625 L 47.144531 47.273438 L 0.339844 0.46875 L 424.617188 0.46875 Z M 424.617188 358.519531 " clip-rule="nonzero"/></clipPath><clipPath id="75a6709791"><rect x="0" width="425" y="0" height="425"/></clipPath><clipPath id="b5afccb13d"><path d="M 290.386719 280.660156 L 1199.933594 280.660156 L 1199.933594 1220 L 290.386719 1220 Z M 290.386719 280.660156 " clip-rule="nonzero"/></clipPath><clipPath id="e2b8232e3f"><path d="M 338.386719 487.105469 L 1022.234375 1172.535156 L 1002.816406 1191.886719 L 1002.816406 1164.503906 L 1172.421875 1164.503906 L 1172.421875 1191.921875 L 1145.003906 1191.921875 L 1145.003906 978.703125 L 1172.421875 978.703125 L 1152.875 997.925781 L 492.414062 327.304688 L 511.960938 308.078125 L 511.960938 335.496094 L 319 335.496094 L 319 308.078125 L 346.386719 306.917969 L 355.546875 524.652344 L 300.777344 526.976562 L 291.582031 309.242188 L 290.390625 280.660156 L 523.414062 280.660156 L 531.476562 288.855469 L 1191.972656 959.445312 L 1199.84375 967.445312 L 1199.84375 1219.339844 L 991.429688 1219.339844 L 983.398438 1211.273438 L 299.582031 525.847656 Z M 338.386719 487.105469 " clip-rule="nonzero"/></clipPath><clipPath id="e423ab9286"><path d="M 0.386719 0.660156 L 909.933594 0.660156 L 909.933594 939.441406 L 0.386719 939.441406 Z M 0.386719 0.660156 " clip-rule="nonzero"/></clipPath><clipPath id="16e363d3cf"><path d="M 48.386719 207.105469 L 732.234375 892.535156 L 712.816406 911.886719 L 712.816406 884.503906 L 882.421875 884.503906 L 882.421875 911.921875 L 855.003906 911.921875 L 855.003906 698.703125 L 882.421875 698.703125 L 862.875 717.925781 L 202.414062 47.304688 L 221.960938 28.078125 L 221.960938 55.496094 L 29 55.496094 L 29 28.078125 L 56.386719 26.917969 L 65.546875 244.652344 L 10.777344 246.976562 L 1.582031 29.242188 L 0.390625 0.660156 L 233.414062 0.660156 L 241.476562 8.855469 L 901.972656 679.445312 L 909.84375 687.445312 L 909.84375 939.339844 L 701.429688 939.339844 L 693.398438 931.273438 L 9.582031 245.847656 Z M 48.386719 207.105469 " clip-rule="nonzero"/></clipPath><clipPath id="dbfa6baca8"><rect x="0" width="910" y="0" height="940"/></clipPath></defs><g clip-path="url(#74f7ca8b31)"><g clip-path="url(#a13fea4e35)"><g transform="matrix(1, 0, 0, 1, 301, 787)"><g clip-path="url(#7dcffecb9b)"><g clip-path="url(#709767055d)"><g clip-path="url(#0be78d999b)"><rect x="-631" width="2160" fill="#ffffff" height="2159.999904" y="-1116.999985" fill-opacity="1"/></g></g></g></g></g></g><g clip-path="url(#d8ec274fa6)"><g clip-path="url(#c6006cbcdd)"><g transform="matrix(1, 0, 0, 1, 785, 285)"><g clip-path="url(#75a6709791)"><g clip-path="url(#662d824dc1)"><g clip-path="url(#ddbaf4e7b5)"><rect x="-1115" width="2160" fill="#009996" height="2159.999904" y="-614.999985" fill-opacity="1"/></g></g></g></g></g></g><g clip-path="url(#b5afccb13d)"><g clip-path="url(#e2b8232e3f)"><g transform="matrix(1, 0, 0, 1, 290, 280)"><g clip-path="url(#dbfa6baca8)"><g clip-path="url(#e423ab9286)"><g clip-path="url(#16e363d3cf)"><rect x="-620" width="2160" fill="#ffffff" height="2159.999904" y="-609.999985" fill-opacity="1"/></g></g></g></g></g></g></svg>